<?xml version="1.0" standalone="no"?>
<!DOCTYPE svg PUBLIC "-//W3C//DTD SVG 20010904//EN"
 "http://www.w3.org/TR/2001/REC-SVG-20010904/DTD/svg10.dtd">
<svg version="1.0" xmlns="http://www.w3.org/2000/svg"
 width="510.000000pt" height="330.000000pt" viewBox="0 0 510.000000 330.000000"
 preserveAspectRatio="xMidYMid meet">

<g transform="translate(0.000000,330.000000) scale(0.100000,-0.100000)"
fill="#000000" stroke="none">
<path d="M970 3000 c-12 -8 -12 -14 5 -47 29 -59 28 -70 -4 -76 -15 -3 -38 -3
-50 0 -15 4 -21 1 -19 -7 2 -7 -17 -19 -42 -28 -64 -23 -26 -27 68 -7 105 21
168 22 190 2 10 -9 33 -18 52 -19 36 -3 36 -3 23 43 -3 11 4 18 22 23 16 4 25
12 23 23 -2 9 3 18 11 21 9 3 11 0 6 -9 -6 -11 -5 -12 5 -2 16 14 8 26 -18 28
-9 0 -23 4 -30 9 -7 4 -19 1 -27 -6 -46 -41 -44 -41 -81 -13 -19 14 -45 37
-59 51 -25 25 -50 30 -75 14z"/>
<path d="M4890 2908 c-101 -129 -117 -153 -112 -168 3 -8 1 -12 -3 -8 -11 10
-41 -22 -165 -177 -100 -124 -149 -199 -137 -211 8 -8 62 58 72 89 7 20 16 31
26 29 9 -1 37 24 65 59 58 73 59 75 71 114 5 17 15 30 24 30 21 0 50 25 43 36
-3 5 -1 8 4 7 5 -2 42 33 81 76 60 66 72 84 68 105 -3 15 1 33 10 43 8 9 13
23 11 31 -2 9 -24 -12 -58 -55z"/>
<path d="M1270 2956 c0 -2 9 -6 20 -9 11 -3 20 -1 20 4 0 5 -9 9 -20 9 -11 0
-20 -2 -20 -4z"/>
<path d="M157 2764 c-10 -11 -8 -94 2 -94 5 0 12 6 14 13 4 10 6 10 6 0 2 -21
18 -15 25 10 5 17 8 19 15 8 9 -14 9 -14 26 47 4 15 -2 19 -38 20 -24 2 -46 0
-50 -4z"/>
<path d="M263 2755 c-3 -9 -3 -18 -1 -21 3 -3 8 4 11 16 6 23 -1 27 -10 5z"/>
<path d="M4248 2741 c-33 -14 -35 -18 -24 -33 7 -10 17 -18 21 -18 14 0 45
-42 38 -53 -7 -12 14 -1 40 21 31 27 18 70 -28 94 -5 3 -27 -2 -47 -11z"/>
<path d="M312 2703 c2 -9 19 -25 38 -36 l35 -19 -34 36 c-39 41 -44 43 -39 19z"/>
<path d="M4891 2648 c-30 -33 -48 -58 -40 -58 21 0 102 85 97 101 -2 9 -24 -8
-57 -43z"/>
<path d="M4772 2456 c-84 -85 -152 -159 -152 -165 0 -17 38 19 71 66 20 29 36
42 49 40 28 -3 190 159 190 190 0 13 -1 23 -3 23 -1 0 -71 -69 -155 -154z"/>
<path d="M433 2593 c4 -6 31 -31 60 -54 28 -24 43 -33 32 -20 -24 28 -102 91
-92 74z"/>
<path d="M4800 2547 c-8 -7 -33 -33 -55 -57 -34 -38 -31 -36 18 10 31 30 57
56 57 57 0 5 -5 3 -20 -10z"/>
<path d="M4644 2387 c-41 -49 -49 -62 -20 -37 25 22 52 60 43 60 -2 0 -12 -10
-23 -23z"/>
<path d="M1998 2373 c-20 -5 -24 -19 -6 -25 7 -3 5 -13 -7 -32 -14 -21 -19
-48 -19 -106 -1 -46 -5 -78 -11 -77 -5 1 -11 -13 -13 -31 -3 -26 -7 -32 -20
-27 -15 5 -15 4 0 -12 48 -53 62 -186 28 -253 -11 -22 -29 -91 -40 -154 -19
-114 -58 -532 -49 -540 4 -4 238 -16 322 -16 27 0 37 -4 37 -16 0 -8 -4 -13
-9 -9 -15 9 -20 -7 -22 -68 -1 -31 -6 -54 -11 -51 -4 3 -8 0 -8 -6 0 -6 -13
-25 -30 -41 -36 -36 -90 -148 -97 -199 -5 -36 -7 -38 -51 -44 -25 -3 -50 -2
-54 2 -5 5 -15 49 -24 98 -25 145 -45 227 -66 269 -11 22 -22 56 -24 75 -11
100 -15 110 -53 129 -33 18 -58 52 -76 106 -6 20 -7 20 -21 1 -13 -19 -14 -18
-14 11 0 18 4 34 9 38 14 8 -40 111 -65 123 -19 9 -20 14 -11 59 13 62 -4 100
-54 127 -31 17 -38 17 -64 5 -36 -17 -73 -70 -80 -115 -3 -19 -7 -49 -10 -66
-4 -24 -17 -41 -46 -62 -27 -19 -37 -31 -29 -36 8 -5 7 -9 -4 -13 -18 -7 -22
-37 -6 -37 6 0 8 -13 5 -29 -4 -24 1 -33 33 -57 20 -15 39 -32 41 -37 1 -4 12
-16 22 -26 18 -17 18 -19 3 -32 -9 -7 -27 -30 -40 -51 -36 -56 -64 -78 -101
-78 -30 0 -33 -3 -33 -28 0 -37 -34 -70 -54 -53 -12 10 -13 6 -9 -28 8 -55
-57 -248 -78 -235 -5 3 -9 79 -9 170 0 93 -4 164 -9 164 -5 0 -16 3 -25 6 -10
4 -19 -2 -27 -19 -9 -20 -31 -31 -114 -58 -77 -26 -101 -38 -98 -49 2 -8 -2
-5 -8 7 -15 28 -29 30 -29 4 0 -37 25 -44 70 -21 23 12 64 24 91 27 27 3 52
10 55 14 9 14 34 10 34 -5 0 -8 -10 -16 -22 -18 -17 -2 -22 -9 -20 -23 2 -14
0 -16 -6 -7 -7 10 -26 6 -88 -18 -43 -16 -92 -39 -109 -50 l-30 -20 33 0 c24
0 32 -4 32 -18 0 -10 5 -23 12 -30 9 -9 -1 -12 -45 -12 l-57 0 0 -54 0 -54
-41 -10 c-37 -9 -41 -8 -49 11 -5 13 -9 16 -10 7 0 -13 -1 -13 -10 0 -14 22
-12 29 9 23 15 -4 18 0 14 24 -2 15 -4 58 -3 96 1 58 -3 72 -25 101 -13 18
-22 36 -18 39 3 4 -11 6 -33 6 -30 -2 -33 -3 -11 -6 15 -2 32 -13 37 -24 9
-16 7 -19 -16 -19 -15 0 -34 10 -44 23 -10 12 -20 20 -23 17 -2 -3 -7 -60 -11
-128 l-7 -122 40 0 c42 0 58 -19 45 -54 -5 -14 2 -16 52 -16 33 0 71 6 85 14
15 7 39 11 53 9 30 -6 46 -23 21 -23 -18 0 -37 -43 -29 -64 7 -18 65 -41 124
-50 84 -12 365 -36 425 -36 76 0 192 24 214 44 16 15 25 15 102 0 46 -8 120
-19 163 -24 68 -8 82 -13 100 -35 27 -34 79 -33 84 2 2 13 13 24 28 27 35 9
154 -13 161 -30 3 -10 10 -11 22 -4 12 6 22 5 31 -3 10 -9 14 -9 17 1 3 8 27
12 73 12 74 0 83 6 84 52 1 17 10 34 24 44 17 12 21 19 13 27 -6 6 -11 17 -11
24 0 15 39 13 174 -6 45 -6 90 -6 135 1 36 6 106 8 155 5 78 -5 100 -11 170
-46 96 -47 125 -46 155 5 11 19 25 34 31 34 5 0 10 9 10 20 0 11 6 22 13 24 6
2 61 19 122 37 117 35 166 40 188 17 10 -10 44 -15 108 -16 52 -2 102 -5 111
-8 28 -8 96 15 101 34 3 9 5 -16 6 -55 1 -43 -3 -73 -9 -73 -5 0 -10 5 -10 10
0 6 -10 9 -22 9 -17 -1 -19 -2 -5 -6 9 -2 17 -9 17 -15 0 -5 -6 -8 -14 -5 -8
3 -17 1 -20 -6 -2 -7 -5 -4 -5 6 -1 23 -21 22 -21 -1 0 -15 -16 -22 -77 -37
-84 -19 -124 -34 -119 -44 2 -3 -5 -15 -15 -25 -19 -19 -19 -19 -19 3 0 12 -4
20 -9 17 -5 -3 -12 1 -15 10 -11 28 -6 44 12 45 14 0 14 2 -3 8 -11 5 -24 6
-29 3 -5 -3 -6 5 -3 18 9 34 -7 11 -27 -40 -28 -71 -31 -75 -60 -78 -14 -2
-26 -6 -26 -10 0 -4 -37 -5 -82 -2 l-83 5 -3 42 c-2 23 -9 43 -15 46 -23 9
-101 -28 -114 -53 -10 -21 -10 -26 5 -31 21 -8 160 -26 270 -35 45 -4 82 -11
82 -15 0 -5 -12 -7 -27 -4 -16 2 -9 -2 13 -9 23 -8 84 -19 135 -26 52 -7 133
-18 182 -26 103 -17 161 -18 152 -4 -3 6 5 10 18 10 14 0 27 -6 30 -14 5 -13
78 -36 117 -36 20 0 21 4 16 43 -3 23 -5 45 -5 50 -1 4 -6 6 -12 5 -6 -2 -14
3 -16 10 -3 7 4 12 16 12 13 0 21 7 22 18 0 12 3 10 11 -8 6 -14 10 -31 9 -37
-1 -7 7 -13 19 -13 22 0 27 -15 8 -23 -10 -4 -10 -6 -1 -6 9 -1 10 -8 3 -26
-6 -16 -6 -25 0 -25 6 0 10 9 10 20 0 27 6 25 38 -9 28 -31 37 -34 90 -32 22
1 32 6 32 16 0 19 -30 32 -39 17 -5 -8 -13 -4 -25 10 -17 20 -17 22 -2 33 15
11 15 13 1 19 -9 3 -13 11 -10 16 4 7 -2 9 -19 4 -26 -6 -38 10 -13 19 7 2 0
10 -15 17 -19 9 -28 21 -28 37 0 25 23 31 50 13 11 -8 7 -9 -15 -4 -16 4 -26
3 -22 -2 4 -4 40 -7 79 -6 60 3 70 1 65 -13 -4 -8 -2 -15 3 -15 6 0 10 18 10
40 0 41 5 45 58 43 6 -1 12 7 12 16 0 10 8 4 19 -15 23 -38 37 -48 46 -34 4 6
11 8 16 4 19 -12 74 6 108 35 20 17 41 27 52 24 13 -4 19 0 19 11 0 9 11 21
24 26 13 5 27 14 31 19 3 6 15 11 25 11 10 0 20 6 22 12 3 9 12 8 31 -5 14 -9
28 -17 31 -17 5 0 19 48 20 70 1 8 11 15 23 15 12 0 33 13 47 28 l26 28 0 243
c0 175 -3 245 -12 254 -7 7 -36 11 -72 10 l-61 -2 57 -3 c62 -4 72 -14 58 -60
-4 -15 -9 -23 -10 -18 0 6 -7 -5 -15 -22 -8 -18 -19 -33 -25 -33 -6 0 -8 5 -5
10 3 6 1 10 -4 10 -6 0 -11 -5 -11 -11 0 -6 -10 -9 -22 -7 -20 3 -23 9 -24 62
-2 68 -18 87 -68 85 l-31 -1 29 -7 c37 -8 42 -27 36 -131 l-5 -85 -29 40 c-15
22 -25 31 -21 20 4 -11 14 -39 22 -62 8 -24 18 -43 23 -43 4 0 7 -15 6 -34 -1
-26 -14 -47 -64 -101 -35 -37 -67 -64 -71 -59 -4 5 -24 30 -44 55 l-37 46 16
77 c9 43 14 80 11 82 -3 3 -15 -24 -26 -59 l-22 -64 -65 -2 -66 -2 2 48 c1 26
1 99 1 161 l-1 112 -25 0 -25 0 0 -159 0 -159 -127 5 c-71 3 -131 8 -134 12
-3 3 -3 17 2 31 4 14 7 19 8 13 1 -18 21 -16 21 2 0 8 -6 15 -14 15 -19 0 -29
64 -24 163 3 77 -1 87 -31 68 -11 -7 -14 -29 -13 -87 l2 -78 -25 24 c-21 20
-25 21 -25 6 0 -9 11 -34 25 -54 14 -21 25 -51 25 -69 l0 -33 -71 0 c-44 0
-68 -4 -64 -10 6 -10 -29 -100 -40 -100 -9 0 -54 53 -60 73 -10 28 -24 20 -31
-19 -4 -24 -9 -32 -15 -23 -4 7 -4 18 0 24 5 5 5 19 0 30 -5 15 -8 16 -8 4 -1
-9 -10 -24 -21 -34 -20 -18 -20 -17 -20 17 0 19 -11 56 -24 82 -14 27 -22 54
-19 61 3 8 -5 15 -19 17 -13 2 -23 8 -24 13 -1 18 -16 45 -25 45 -13 0 -59 50
-59 64 0 9 -9 12 -25 9 -19 -4 -27 0 -36 21 -11 24 -25 31 -58 27 -7 -2 -11 4
-9 11 3 7 14 14 26 16 23 4 35 31 34 74 -1 27 2 28 46 28 26 0 53 4 60 9 7 4
-12 6 -43 3 -45 -4 -55 -2 -55 11 0 8 6 18 13 20 9 4 9 6 -2 6 -7 1 -22 12
-32 25 -14 18 -31 26 -62 28 l-42 3 -2 58 c-1 54 0 57 22 57 13 0 25 -5 27
-10 5 -16 116 -31 178 -25 138 14 140 15 140 40 0 22 -3 23 -102 29 -57 3
-149 7 -205 9 -88 2 -103 0 -106 -15 -3 -9 4 -26 14 -37 21 -22 25 -56 9 -66
-5 -3 -10 -14 -10 -24 0 -13 -8 -18 -32 -18 -18 -1 -27 1 -20 4 20 8 14 26 -8
20 -13 -3 -21 1 -25 14 -10 32 -24 21 -15 -11 10 -35 12 -32 -22 -34 -17 -1
-28 3 -28 11 0 14 -55 18 -84 7 -13 -5 -14 -9 -4 -21 9 -11 9 -16 -2 -23 -7
-4 -11 -16 -8 -27 3 -10 -1 -25 -9 -32 -8 -7 -12 -19 -9 -27 5 -14 -17 -16
-146 -18 -18 -1 -24 -4 -17 -12 6 -7 4 -16 -6 -24 -8 -7 -16 -10 -16 -6 -4 18
-8 77 -8 116 -1 25 -6 61 -11 80 -6 19 -15 84 -21 145 -7 81 -14 112 -25 118
-13 7 -14 22 -9 80 8 90 -13 140 -59 145 -47 6 -70 -15 -115 -98 -22 -43 -48
-83 -56 -90 -13 -11 -12 -15 11 -26 18 -10 31 -11 43 -4 9 5 12 10 7 10 -5 0
-3 6 3 13 6 8 23 12 41 9 34 -5 41 -22 9 -22 -11 0 -17 -5 -14 -10 4 -6 11 -8
16 -5 5 4 9 -3 9 -14 0 -25 20 -39 20 -14 1 11 7 4 16 -16 17 -40 12 -61 -13
-62 -16 0 -16 -1 1 -8 31 -12 29 -41 -2 -41 -23 0 -24 -1 -8 -13 12 -9 18 -28
19 -65 2 -29 -1 -52 -5 -52 -4 0 -7 -3 -7 -7 3 -20 -2 -34 -11 -28 -5 3 -6 13
-3 21 3 9 0 20 -8 26 -11 7 -11 11 -1 15 6 2 10 9 6 14 -3 5 1 9 8 9 10 0 9 3
-2 9 -10 7 -19 2 -32 -20 -10 -16 -21 -29 -24 -29 -4 0 -2 6 3 13 5 6 11 30
12 51 1 22 5 44 8 49 4 6 -1 8 -11 4 -16 -6 -17 -3 -12 19 6 21 4 25 -8 21 -9
-4 -16 -2 -16 4 0 6 -6 9 -14 6 -10 -4 -13 2 -12 24 2 25 -1 28 -17 23 -16 -5
-19 -3 -14 10 5 13 0 16 -25 16 l-31 0 7 -122 c8 -154 11 -181 20 -196 4 -7 2
-12 -3 -12 -6 0 -11 -7 -11 -16 0 -9 5 -12 13 -8 8 5 8 2 -2 -9 -12 -15 -11
-17 7 -17 18 0 52 -37 52 -58 0 -4 -15 -8 -32 -9 -18 0 -73 -13 -123 -27 -103
-30 -105 -30 -105 -13 0 6 -18 73 -41 147 -23 74 -41 146 -41 160 0 14 -6 32
-14 41 -8 8 -16 29 -18 45 -2 16 -11 62 -20 102 -18 81 -21 178 -7 184 5 2 11
36 14 77 3 69 2 77 -20 97 -19 18 -21 23 -8 28 18 7 20 34 3 33 -54 -2 -56 0
-60 71 -4 71 -20 102 -53 102 -9 0 -24 8 -33 18 -10 11 -25 17 -34 15z m71
-90 c6 -11 11 -13 11 -5 0 22 17 4 22 -23 4 -19 -1 -31 -20 -45 -30 -24 -40
-25 -64 -3 -20 18 -24 63 -5 63 8 0 8 3 -2 9 -11 7 -9 10 10 14 13 2 27 5 31
6 4 0 12 -7 17 -16z m27 -122 c-1 -16 -4 -32 -8 -36 -8 -8 2 -45 13 -45 4 0 0
-13 -9 -30 -19 -34 -35 -34 -40 -1 -2 12 -9 24 -15 27 -10 4 -12 23 -8 79 1
12 53 45 62 39 4 -2 6 -17 5 -33z m652 -203 c13 -13 17 -59 5 -57 -20 3 -24
-2 -14 -15 9 -11 6 -18 -15 -35 -34 -26 -50 -27 -64 0 -18 32 -2 78 33 100 38
22 39 23 55 7z m-143 -168 c3 -5 2 -10 -4 -10 -5 0 -13 5 -16 10 -3 6 -2 10 4
10 5 0 13 -4 16 -10z m-1042 -148 c10 -10 16 -32 14 -50 -2 -31 -8 -36 -34
-33 -7 1 -13 -3 -13 -9 0 -5 9 -10 20 -10 19 0 19 -1 2 -34 -9 -19 -19 -34
-22 -33 -3 0 -12 -3 -20 -7 -12 -5 -14 -22 -10 -93 3 -48 3 -112 0 -143 l-5
-55 -31 30 c-17 17 -36 29 -43 27 -6 -2 -11 2 -11 8 0 7 8 14 19 17 13 3 22
20 30 61 17 83 14 105 -19 148 -16 21 -30 48 -30 59 0 31 62 118 90 126 40 11
46 10 63 -9z m1022 -147 c-3 -38 -8 -72 -11 -74 -2 -2 -4 40 -3 95 0 77 3 93
10 74 6 -14 8 -55 4 -95z m709 -30 c-4 -8 -14 -15 -23 -15 -14 1 -13 3 3 15
25 19 27 19 20 0z m-577 -47 c-3 -8 -6 -5 -6 6 -1 11 2 17 5 13 3 -3 4 -12 1
-19z m499 -35 c-10 -11 -37 -12 -30 -2 3 5 12 9 21 9 9 0 13 -3 9 -7z m101
-10 c7 -18 -82 -198 -122 -249 -18 -23 -26 -26 -36 -17 -9 9 -8 25 6 75 21 76
60 166 82 190 20 23 62 23 70 1z m-254 -41 c22 -24 8 -42 -30 -38 -24 3 -32 0
-36 -15 -3 -13 -11 -17 -21 -13 -12 5 -15 2 -10 -11 4 -9 3 -20 -2 -24 -5 -3
-14 -15 -20 -26 -7 -11 -19 -19 -28 -19 -9 1 -16 -2 -16 -8 0 -5 -5 -6 -10 -3
-6 3 -13 -1 -16 -9 -6 -16 -64 -23 -64 -8 1 4 7 33 15 65 15 65 32 92 22 37
l-7 -35 20 23 c17 21 18 26 5 39 -20 20 -19 21 10 15 18 -3 25 0 23 9 -3 15
28 19 55 6 10 -4 17 -4 17 2 0 5 15 8 33 7 17 -2 23 -1 12 2 l-20 4 20 9 c29
11 30 11 48 -9z m-1439 -128 c10 -26 6 -87 -8 -128 -13 -37 -14 -38 -21 -15
-5 13 -9 54 -9 91 -1 57 2 68 15 68 9 0 20 -7 23 -16z m846 -11 c10 -9 -26
-23 -60 -23 -29 -1 -32 -2 -17 -11 17 -10 22 -44 11 -74 -6 -15 -8 -15 -25 1
-17 15 -19 15 -34 0 -9 -9 -32 -16 -51 -16 -21 0 -33 -4 -29 -10 9 -14 -8 -13
-23 2 -19 19 -10 111 11 109 38 -4 87 1 87 9 0 6 -18 10 -41 10 -25 0 -38 4
-34 10 6 10 193 3 205 -7z m385 -63 c4 -6 -5 -10 -19 -10 -14 0 -26 5 -26 10
0 6 9 10 19 10 11 0 23 -4 26 -10z m-1368 -12 c10 -13 19 -55 44 -202 10 -56
9 -70 -2 -77 -8 -5 -17 -9 -21 -9 -10 0 -61 170 -60 197 1 12 -3 34 -8 49 -16
41 22 74 47 42z m1803 -39 c0 -5 -11 -25 -25 -45 -19 -28 -25 -50 -25 -91 0
-74 -30 -185 -48 -178 -7 3 -18 5 -24 5 -6 0 -8 10 -5 23 4 12 7 75 8 140 l3
118 34 40 35 40 23 -22 c13 -12 24 -26 24 -30z m1630 -50 l0 -37 -55 -4 c-47
-3 -55 0 -55 15 0 9 7 17 15 17 8 0 17 11 21 25 3 14 10 25 15 25 5 0 5 -7 2
-17 -4 -11 -3 -14 5 -9 7 4 12 18 12 31 0 24 1 24 20 8 13 -12 20 -30 20 -54z
m-3138 4 c14 -16 44 -75 67 -132 41 -102 48 -131 34 -131 -5 0 -18 -3 -30 -6
-19 -5 -27 5 -68 93 -26 54 -49 112 -52 128 -4 17 -11 33 -16 37 -13 8 9 38
27 38 7 0 24 -12 38 -27z m-160 -97 c6 -16 12 -44 13 -63 l1 -34 -18 23 c-13
17 -17 40 -17 83 1 33 3 51 6 40 2 -11 9 -33 15 -49z m2648 -74 c6 -37 5 -41
-17 -45 -13 -2 -27 1 -30 7 -8 11 -4 86 4 99 10 16 35 -21 43 -61z m-3256 18
c-11 -9 -96 -30 -121 -30 -24 1 27 29 82 45 38 12 59 4 39 -15z m3839 -13 c16
-13 18 -20 9 -29 -7 -7 -12 -9 -12 -4 0 4 -7 0 -16 -8 -23 -23 -35 -19 -29 9
14 71 18 80 23 65 3 -8 14 -23 25 -33z m-3256 -19 c-3 -8 -6 -5 -6 6 -1 11 2
17 5 13 3 -3 4 -12 1 -19z m2451 -14 c-4 -3 -12 5 -18 18 -12 22 -12 22 6 6
10 -10 15 -20 12 -24z m126 11 c-5 -12 -10 -13 -20 -4 -19 15 -18 19 6 19 13
0 18 -5 14 -15z m746 6 c0 -20 -13 -41 -25 -41 -7 0 -11 -10 -10 -22 1 -13 3
-30 4 -38 1 -13 2 -13 12 0 9 13 10 13 6 0 -4 -16 -69 -16 -75 1 -2 5 -8 9
-13 9 -4 0 -6 -7 -3 -15 4 -9 0 -15 -10 -15 -11 0 -15 8 -14 25 2 23 28 46 28
24 0 -6 6 -9 13 -6 6 2 12 10 12 18 0 20 32 52 44 44 6 -3 11 1 11 9 0 9 5 16
10 16 6 0 10 -4 10 -9z m-750 -41 c10 0 10 -3 1 -14 -10 -12 -7 -18 19 -31 42
-22 128 -12 150 16 15 18 16 17 18 -30 l2 -49 -29 14 c-39 20 -142 36 -155 25
-6 -5 -28 -14 -48 -19 -34 -9 -38 -9 -38 9 0 10 6 18 13 17 7 -2 13 11 15 35
2 20 7 35 13 32 5 -4 9 -1 9 4 0 6 -4 11 -10 11 -5 0 -10 6 -10 13 1 6 9 2 19
-10 11 -13 25 -23 31 -23z m32 -4 c-3 -5 -9 -1 -12 10 -4 10 -5 23 -2 28 3 5
9 1 12 -10 4 -10 5 -23 2 -28z m135 35 c-1 -3 -9 -18 -16 -33 -17 -33 -36 -42
-38 -17 -1 10 7 21 17 24 11 3 17 12 14 19 -3 7 2 13 11 13 8 0 14 -3 12 -6z
m130 -43 c-3 -8 -6 -5 -6 6 -1 11 2 17 5 13 3 -3 4 -12 1 -19z m-2188 -12 c35
-19 55 -42 42 -50 -5 -4 -29 7 -53 23 -24 16 -54 31 -68 34 -18 3 -15 5 13 6
21 0 50 -5 66 -13z m1946 -6 c-3 -5 1 -10 9 -10 9 0 16 5 16 11 0 5 5 7 10 4
18 -11 10 -25 -14 -25 -26 0 -40 12 -29 24 10 9 15 7 8 -4z m224 -34 c-7 -14
-19 -26 -26 -26 -10 0 -8 8 9 29 27 34 33 33 17 -3z m305 3 c-3 -5 -10 -7 -15
-3 -5 3 -7 10 -3 15 3 5 10 7 15 3 5 -3 7 -10 3 -15z m-19 -21 c31 -14 32 -34
3 -49 -13 -7 -26 -16 -29 -22 -4 -5 -6 11 -5 37 0 25 2 46 3 46 1 0 14 -5 28
-12z m-2341 -20 c6 -24 -15 -48 -41 -48 -20 0 -16 8 15 25 l27 16 -32 -4 c-38
-4 -43 5 -10 21 31 15 34 15 41 -10z m2056 -51 c0 -6 -9 -2 -20 8 -11 10 -20
23 -20 28 0 6 9 2 20 -8 11 -10 20 -23 20 -28z m-2030 4 c0 -13 -21 -28 -55
-40 l-30 -11 35 30 c35 31 50 37 50 21z m-390 -10 c-26 -15 -80 -23 -80 -12 0
8 24 14 80 19 13 1 13 0 0 -7z m1090 -5 c0 -3 -4 -8 -10 -11 -5 -3 -10 -1 -10
4 0 6 5 11 10 11 6 0 10 -2 10 -4z m-1153 -58 c-3 -8 -6 -5 -6 6 -1 11 2 17 5
13 3 -3 4 -12 1 -19z m2320 6 c-3 -3 -12 -4 -19 -1 -8 3 -5 6 6 6 11 1 17 -2
13 -5z"/>
<path d="M2680 1860 c0 -13 18 -22 24 -11 3 5 -1 11 -9 15 -8 3 -15 1 -15 -4z"/>
<path d="M1459 1568 c15 -20 41 -24 41 -7 0 5 -5 7 -10 4 -6 -4 -19 -1 -28 7
-15 12 -16 11 -3 -4z"/>
<path d="M1438 1544 c-5 -4 -8 -16 -8 -28 0 -14 3 -17 11 -9 6 6 9 19 7 28 -1
9 -6 13 -10 9z"/>
<path d="M1475 1480 c3 -5 12 -7 20 -3 21 7 19 13 -6 13 -11 0 -18 -4 -14 -10z"/>
<path d="M4134 759 c-9 -15 -2 -18 20 -9 17 6 18 7 3 13 -9 3 -19 2 -23 -4z"/>
<path d="M4330 741 c0 -5 5 -13 10 -16 6 -3 10 -2 10 4 0 5 -4 13 -10 16 -5 3
-10 2 -10 -4z"/>
<path d="M4885 2250 c-18 -19 -17 -20 3 -20 15 0 22 6 22 20 0 11 -2 20 -3 20
-2 0 -12 -9 -22 -20z"/>
<path d="M4810 2195 c-10 -13 -9 -15 9 -15 12 0 21 6 21 15 0 8 -4 15 -9 15
-5 0 -14 -7 -21 -15z"/>
<path d="M1840 2157 c0 -2 15 -16 33 -33 l32 -29 -29 33 c-28 30 -36 37 -36
29z"/>
<path d="M300 1926 c0 -108 3 -135 15 -139 8 -4 17 -2 20 3 3 5 5 64 4 130 -2
107 -4 122 -20 131 -18 9 -19 3 -19 -125z"/>
<path d="M4615 2050 c-3 -5 -1 -10 4 -10 6 0 11 5 11 10 0 6 -2 10 -4 10 -3 0
-8 -4 -11 -10z"/>
<path d="M722 1720 c1 -23 7 -40 14 -40 16 0 47 -48 39 -60 -3 -6 -2 -10 3
-10 10 0 15 104 6 132 -3 12 -15 18 -35 18 -28 0 -30 -2 -27 -40z m43 -30 c3
-6 -1 -7 -9 -4 -18 7 -21 14 -7 14 6 0 13 -4 16 -10z"/>
<path d="M3260 1676 c0 -8 5 -18 10 -21 6 -3 10 3 10 14 0 12 -4 21 -10 21 -5
0 -10 -6 -10 -14z"/>
<path d="M3155 1632 c-27 -8 -65 -16 -83 -19 -43 -7 -202 -175 -202 -213 l1
-25 22 30 c55 74 130 155 159 173 18 11 54 22 81 26 l47 6 0 -42 c0 -39 1 -41
16 -26 14 14 23 95 12 102 -2 1 -25 -4 -53 -12z"/>
<path d="M750 1629 c0 -5 5 -7 10 -4 6 3 10 8 10 11 0 2 -4 4 -10 4 -5 0 -10
-5 -10 -11z"/>
<path d="M4861 1613 c-60 -31 -53 -40 19 -23 38 9 50 16 50 31 0 25 -6 24 -69
-8z"/>
<path d="M3799 1610 l-24 -19 58 -1 c50 0 57 2 57 20 0 16 -7 20 -34 20 -19 0
-44 -9 -57 -20z"/>
<path d="M3937 1624 c-3 -3 -3 -12 0 -20 3 -10 22 -14 59 -14 52 0 73 13 37
23 -40 11 -90 17 -96 11z"/>
<path d="M3225 1580 c-3 -5 1 -10 9 -10 9 0 16 5 16 10 0 6 -4 10 -9 10 -6 0
-13 -4 -16 -10z"/>
<path d="M3280 1580 c0 -6 7 -10 15 -10 8 0 15 2 15 4 0 2 -7 6 -15 10 -8 3
-15 1 -15 -4z"/>
<path d="M189 1483 c-1 -14 -6 -37 -23 -99 -9 -34 -16 -94 -16 -134 0 -61 2
-71 17 -68 9 2 25 25 37 53 11 28 26 54 33 58 9 5 13 31 13 77 0 69 0 70 -27
71 -28 2 -28 2 -3 6 26 5 42 22 34 35 -7 10 -64 11 -65 1z"/>
<path d="M320 1470 c0 -5 10 -10 23 -10 18 0 19 2 7 10 -19 13 -30 13 -30 0z"/>
<path d="M361 1424 c0 -11 3 -14 6 -6 3 7 2 16 -1 19 -3 4 -6 -2 -5 -13z"/>
<path d="M3888 1403 c12 -2 30 -2 40 0 9 3 -1 5 -23 4 -22 0 -30 -2 -17 -4z"/>
<path d="M4000 1405 c8 -2 45 -7 83 -10 57 -6 67 -9 67 -26 0 -22 15 -26 23
-6 10 27 -10 36 -98 41 -50 3 -83 3 -75 1z"/>
<path d="M3845 1354 c9 -9 18 -14 21 -11 9 9 -6 27 -22 27 -13 0 -13 -2 1 -16z"/>
<path d="M450 1341 c0 -12 6 -21 15 -21 8 0 15 3 15 6 0 3 -7 12 -15 20 -13
14 -15 13 -15 -5z"/>
<path d="M4367 1310 c3 -11 9 -20 15 -20 5 0 4 9 -2 20 -6 11 -12 20 -14 20
-2 0 -2 -9 1 -20z"/>
<path d="M2538 1313 c7 -3 16 -2 19 1 4 3 -2 6 -13 5 -11 0 -14 -3 -6 -6z"/>
<path d="M272 1251 c-25 -44 -29 -64 -7 -35 14 18 14 18 15 -8 0 -14 -5 -28
-11 -30 -7 -2 -10 -11 -7 -18 3 -10 12 -4 26 20 24 38 28 55 12 45 -14 -9 -12
39 2 53 7 7 8 12 2 12 -6 0 -20 -17 -32 -39z"/>
<path d="M4567 1180 c3 -11 1 -20 -3 -20 -5 0 -9 -15 -10 -33 l-1 -32 19 43
c18 40 17 62 -2 62 -4 0 -6 -9 -3 -20z"/>
<path d="M4680 1188 c0 -7 5 -20 10 -28 8 -12 10 -9 10 13 0 15 -4 27 -10 27
-5 0 -10 -6 -10 -12z"/>
<path d="M805 1149 c-13 -21 5 -59 32 -65 25 -7 25 -8 7 -22 -21 -16 -20 -16
49 12 26 10 47 22 47 25 0 11 163 19 210 11 18 -4 27 1 37 20 15 30 9 38 -13
16 -12 -13 -32 -16 -76 -15 -32 1 -61 6 -64 11 -7 11 -61 10 -85 -2 -10 -6
-19 -18 -19 -26 0 -11 -8 -14 -27 -12 -24 3 -28 7 -26 31 2 24 -1 27 -32 27
-19 0 -37 -5 -40 -11z"/>
<path d="M4706 1145 c-3 -8 -1 -15 4 -15 6 0 10 7 10 15 0 8 -2 15 -4 15 -2 0
-6 -7 -10 -15z"/>
<path d="M4614 1127 c-3 -8 -8 -46 -13 -86 -5 -53 -4 -77 6 -90 7 -10 9 -21 6
-25 -12 -11 13 -6 30 7 25 18 23 138 -3 187 -13 23 -19 25 -26 7z"/>
<path d="M650 941 c0 -18 29 -33 46 -23 14 8 12 11 -15 20 -17 6 -31 7 -31 3z"/>
<path d="M345 680 c28 -12 45 -12 45 0 0 6 -15 10 -32 9 -28 0 -30 -2 -13 -9z"/>
<path d="M3318 633 c7 -3 16 -2 19 1 4 3 -2 6 -13 5 -11 0 -14 -3 -6 -6z"/>
<path d="M3530 595 c0 -8 7 -15 15 -15 8 0 17 0 20 0 14 0 4 15 -14 22 -15 5
-21 3 -21 -7z"/>
<path d="M2710 560 c0 -5 5 -10 10 -10 6 0 10 5 10 10 0 6 -4 10 -10 10 -5 0
-10 -4 -10 -10z"/>
<path d="M4187 449 c7 -7 15 -10 18 -7 3 3 -2 9 -12 12 -14 6 -15 5 -6 -5z"/>
<path d="M4340 391 c0 -5 7 -12 16 -15 9 -3 14 -12 12 -18 -3 -7 2 -19 10 -27
12 -12 15 -12 22 0 6 9 1 23 -17 41 -27 28 -43 35 -43 19z"/>
</g>
</svg>
